<?xml version="1.0" encoding="utf-8"?>
<!-- Generator: Adobe Illustrator 26.3.1, SVG Export Plug-In . SVG Version: 6.00 Build 0)  -->
<svg version="1.1" id="Layer_1" xmlns="http://www.w3.org/2000/svg" xmlns:xlink="http://www.w3.org/1999/xlink" x="0px" y="0px"
	 viewBox="0 0 841.89 595.28" style="enable-background:new 0 0 841.89 595.28;" xml:space="preserve">
<style type="text/css">
	.st0{fill:#A8378C;}
	.st1{fill:#020203;}
	.st2{fill:#60758D;}
	.st3{fill:#E7D0C4;}
</style>
<g>
	<g>
		<g>
			<g>
				<path class="st0" d="M317.88,307.98c9.13-2.55,21.62,10.37,16.88,19.54c-3.66,8.91-61.51,83.49-38.51,83.47
					c23.96-7.21,41.85-32.91,56.92-51.6c3.12-3.3,8.05,0.52,4.36,4.17c-19.88,25.13-41.85,57.89-75.88,62.61
					C243.58,422.36,312.32,327.36,317.88,307.98z"/>
			</g>
		</g>
		<path class="st1" d="M406.85,307.98c-4.81,8.16-9.61,15.37-14.42,23.52c31.24-30.57,88.36-36.54,67.35,23.15
			c-12.47,31.47-42.75,68.8-78.73,70.57c-13.9,0.51-24.11-5.87-26.18-19.54c-1.23,6.34-2.81,12.22-3.79,18.59
			c-0.79,2.97-6.07-0.19-8.06-1.42c-31.48-19.5,68.64-152.46,75.6-186.96c8.96-2.92,22.65,10.2,18.59,19.54
			C428.98,272.1,416.69,291.42,406.85,307.98z M379.34,352.75c-5.05,8.93-10.16,17.37-14.42,26.75
			c-12.1,88.08,115.52-53.86,69.62-57.86C415.06,321.43,391.45,337.79,379.34,352.75z"/>
		<path class="st1" d="M566.33,339.22c-1.79,3.4-5.92,6.19-6.19,0.25c-0.4-8.81-0.29-21.7-12.71-21.82
			c-30.8,2.14-50.12,36.53-61.28,61.84c-4.9,11.29-7.25,34.24,12.71,28.27c20.63-10.05,47.49-40.2,50.84-64.12
			c8.29-3.07,22.54,11.44,18.59,19.92c-2.25,5.7-25.9,46.8-14.42,47.43c24.78-3.49,42.01-35.65,55.78-54.07
			c1.4-1.88,4.49-1.87,5.68,0.25c1.39,2.47-4.1,7.9-5.51,9.9c-13.15,18.53-25.31,38.25-44.46,51.29
			c-5.54,3.78-11.73,6.95-18.41,7.56c-6.68,0.6-13.92-1.79-17.76-7.29c-4.82-6.9-3.16-16.35-0.27-24.26
			c-9.29,8.31-17.11,18.42-27.73,24.94c-10.62,6.52-25.58,8.45-34.83,0.1c-6.75-6.1-8.66-16.05-7.92-25.11
			c1.44-17.67,11.21-33.56,22.14-47.52c15.15-19.36,35.04-37.51,59.48-40.12c8.49-0.91,18.14,0.68,23.3,7.48
			c4.42,5.83,5.31,16.3,3.64,23.3C566.88,338.03,566.64,338.64,566.33,339.22z"/>
		<path class="st1" d="M701.66,339.47c-0.11,4.2-7.77,5.08-6.64,0c-0.4-8.81-0.28-21.7-12.71-21.82
			c-30.8,2.14-50.12,36.53-61.28,61.84c-4.9,11.29-7.25,34.24,12.71,28.27c20.63-10.05,47.49-40.2,50.84-64.12
			c8.29-3.07,22.54,11.44,18.59,19.92c-2.25,5.7-25.9,46.8-14.42,47.43c24.78-3.49,42.01-35.65,55.78-54.07
			c2.64-3.52,8.43,0.26,4.93,3.98c-13.77,19.43-26.64,40.41-45.91,55.02c-21.16,19.28-52.44,10.09-39.65-21.82
			c-10.76,11.65-30.08,32.01-46.67,31.11c-30.27-1.11-27.3-36.58-16.22-56.15c14.8-29.58,52.26-70.74,88.88-61.09
			C702.95,311.91,703.26,328.18,701.66,339.47z"/>
	</g>
	<g>
		<g>
			<g>
				<path class="st2" d="M317.88,307.98c9.13-2.55,21.62,10.37,16.88,19.54c-3.66,8.91-61.51,83.49-38.51,83.47
					c23.96-7.21,41.85-32.91,56.92-51.6c3.12-3.3,8.05,0.52,4.36,4.17c-19.88,25.13-41.85,57.89-75.88,62.61
					C243.58,422.36,312.32,327.36,317.88,307.98z"/>
			</g>
			<g>
				<path class="st2" d="M317.88,307.98c9.13-2.55,21.62,10.37,16.88,19.54c-3.66,8.91-61.51,83.49-38.51,83.47
					c23.96-7.21,41.85-32.91,56.92-51.6c3.12-3.3,8.05,0.52,4.36,4.17c-19.88,25.13-41.85,57.89-75.88,62.61
					C243.58,422.36,312.32,327.36,317.88,307.98z"/>
			</g>
		</g>
		<path class="st2" d="M406.85,307.98c-4.81,8.16-9.61,15.37-14.42,23.52c31.24-30.57,88.36-36.54,67.35,23.15
			c-12.47,31.47-42.75,68.8-78.73,70.57c-13.9,0.51-24.11-5.87-26.18-19.54c-1.23,6.34-2.81,12.22-3.79,18.59
			c-0.79,2.97-6.07-0.19-8.06-1.42c-31.48-19.5,68.64-152.46,75.6-186.96c8.96-2.92,22.65,10.2,18.59,19.54
			C428.98,272.1,416.69,291.42,406.85,307.98z M379.34,352.75c-5.05,8.93-10.16,17.37-14.42,26.75
			c-12.1,88.08,115.52-53.86,69.62-57.86C415.06,321.43,391.45,337.79,379.34,352.75z"/>
		<path class="st2" d="M566.33,339.22c-1.79,3.4-5.92,6.19-6.19,0.25c-0.4-8.81-0.29-21.7-12.71-21.82
			c-30.8,2.14-50.12,36.53-61.28,61.84c-4.9,11.29-7.25,34.24,12.71,28.27c20.63-10.05,47.49-40.2,50.84-64.12
			c8.29-3.07,22.54,11.44,18.59,19.92c-2.25,5.7-25.9,46.8-14.42,47.43c24.78-3.49,42.01-35.65,55.78-54.07
			c1.4-1.88,4.49-1.87,5.68,0.25c1.39,2.47-4.1,7.9-5.51,9.9c-13.15,18.53-25.31,38.25-44.46,51.29
			c-5.54,3.78-11.73,6.95-18.41,7.56c-6.68,0.6-13.92-1.79-17.76-7.29c-4.82-6.9-3.16-16.35-0.27-24.26
			c-9.29,8.31-17.11,18.42-27.73,24.94c-10.62,6.52-25.58,8.45-34.83,0.1c-6.75-6.1-8.66-16.05-7.92-25.11
			c1.44-17.67,11.21-33.56,22.14-47.52c15.15-19.36,35.04-37.51,59.48-40.12c8.49-0.91,18.14,0.68,23.3,7.48
			c4.42,5.83,5.31,16.3,3.64,23.3C566.88,338.03,566.64,338.64,566.33,339.22z"/>
		<path class="st2" d="M701.66,339.47c-0.11,4.2-7.77,5.08-6.64,0c-0.4-8.81-0.28-21.7-12.71-21.82
			c-30.8,2.14-50.12,36.53-61.28,61.84c-4.9,11.29-7.25,34.24,12.71,28.27c20.63-10.05,47.49-40.2,50.84-64.12
			c8.29-3.07,22.54,11.44,18.59,19.92c-2.25,5.7-25.9,46.8-14.42,47.43c24.78-3.49,42.01-35.65,55.78-54.07
			c2.64-3.52,8.43,0.26,4.93,3.98c-13.77,19.43-26.64,40.41-45.91,55.02c-21.16,19.28-52.44,10.09-39.65-21.82
			c-10.76,11.65-30.08,32.01-46.67,31.11c-30.27-1.11-27.3-36.58-16.22-56.15c14.8-29.58,52.26-70.74,88.88-61.09
			C702.95,311.91,703.26,328.18,701.66,339.47z"/>
	</g>
</g>
<path class="st2" d="M355.16,184.29c-5.04-14.42-19.02-23.77-34.39-27.21c-5.9,2.33-13.38,1.45-18.54-2.01
	c-61.25-2.16-130.78,65.87-103.11,127.49c-15.4,4.05-30.69,7.86-45.91,10.24c-1.32-25.59-21.68-45.84-30.07-69.06
	c-16.93-60.47,85.12-82.25,69.15-2.66c25.39-29.7,6.57-72.98-32.54-71.79c-5.46,4.25-13.93,5.37-20.41,2.53
	c-31.84,8.41-48.15,46.86-36.88,76.37c9.92,27.41,41.49,45.04,42.02,75.79c18.4-1.71,40.14-6.17,60.52-11.19
	c4.21,5.62,9,11.02,14.99,14.61c-44.2,5.46-95.15,23.94-119.23,64.12c-20.38,34.93-7.14,77.08,33.87,86.6
	c72.4,17.27,132.89-43.19,162.96-104.15c-1.75-3.89-7.73,3.7-8.54,5.98c-10.5,15.81-21.22,29.22-32.16,40.22
	c-32.25,34.31-91.08,65.13-130.33,31.21c-12.47-14.89-9.97-37.85-0.47-53.5c15.1-24.43,43.5-38.9,70.29-47.71
	c16.43-5.33,34.88-9.03,50.75-9.11c6.45,0,11.07-0.82,13.85-2.47c5.93-3.46,4.4-7.75-1.61-10.24c-6.33-2.6-17.31-0.64-25.33-1.9
	c-7.71-3-13.47-9.57-17.45-16.7C258.68,277.3,376.31,243.9,355.16,184.29z M328.03,212.18c-24.15,36.21-75.91,53-116.2,66.59
	c-12.93-38.29,14.42-76.75,48-93.72c17.22-8.48,39.42-14.9,58.15-8.63C332.91,182.26,336.21,199.27,328.03,212.18z"/>
<circle class="st3" cx="146.22" cy="128.37" r="20.94"/>
<path class="st2" d="M314.47,112.66c-27.52,0.47-27.52,41.41,0,41.88C342,154.07,341.99,113.13,314.47,112.66z"/>
<path class="st3" d="M336.7,268.58c8.8-0.86,14.72,4.06,12.52,12.71c22.34-30.43,50.4-14.16,21.91,4.65
	c-11.52,7.09-27.55,10.1-37.47,19.25c3.5-8.75-3.73-13.16-7.11-19.92C323.23,278.88,328.49,268.73,336.7,268.58z"/>
<g>
	<g>
		<path class="st3" d="M238.63,197.92c0,0,0.01,0,0.01-0.01C238.64,197.92,238.64,197.92,238.63,197.92z"/>
		<path class="st3" d="M192.46,268.47c-4.22-17.5,0.07-35.31,8.24-51.45c-4.27,2.67-8.12,5.4-12.4,8.17
			c1.41-9.24,2.48-18.26-0.53-27.29c-6.05-16-17.42-26.23-31.91-22.39c-5.09,1.46-13.48,3.45-21.11,13.21
			c-7.63,9.76-6.29,21.6-5.32,31.29c1.63,15.26,9.63,28.31,17.82,40.81c5.56,7.92,7.59,17.11,8.97,26.53
			c13.18-2.78,26.19-5.78,39.17-9.28C194.19,274.95,193.2,271.75,192.46,268.47z"/>
		<path class="st3" d="M324.39,194.83c-1.7-7.56-9-12.38-15.85-14.85c-17.1-3.55-47.64,10.38-63.9,16.39
			c-17.92,14.54-32.23,35.4-33.1,58.72c-0.43,6.14,0.27,13.08,1.79,19.3c26.27-7.22,56.91-20.8,80.26-35.21
			c14.13-9.01,29.13-21.23,31.36-38.95c0-0.84,0-1.67,0-2.51C324.76,196.76,324.59,195.79,324.39,194.83z"/>
	</g>
</g>
<g>
	<path d="M266.87,465.68c0-4.39,1.25-7.72,3.74-9.99c1.95-1.76,4.52-2.64,7.72-2.66c3.67,0,6.53,1.2,8.56,3.58
		c1.86,2.16,2.8,5.09,2.82,8.78c0,2.67-0.34,4.81-1.03,6.43c-0.86,2.06-2.14,3.64-3.85,4.74c-1.83,1.23-4.01,1.84-6.56,1.84
		c-3.57,0-6.36-1.13-8.38-3.4C267.88,472.74,266.87,469.63,266.87,465.68z M269.69,444.51c0-1,0.38-1.88,1.13-2.63
		c0.72-0.72,1.58-1.08,2.58-1.08c0.97,0,1.84,0.36,2.61,1.08c0.75,0.76,1.13,1.63,1.13,2.63c0,1-0.38,1.86-1.13,2.58
		c-0.76,0.76-1.63,1.13-2.61,1.13c-0.97,0-1.83-0.36-2.58-1.08C270.07,446.4,269.69,445.52,269.69,444.51z M273.9,465.68
		c0,4.36,1.48,6.53,4.43,6.51c3.02,0,4.53-2.15,4.53-6.46c0-4.32-1.51-6.48-4.53-6.48C275.38,459.25,273.9,461.39,273.9,465.68z
		 M279.41,444.51c0-1,0.38-1.88,1.13-2.63c0.72-0.72,1.58-1.08,2.58-1.08c0.97,0,1.83,0.36,2.58,1.08c0.76,0.76,1.13,1.63,1.13,2.63
		c0,1-0.38,1.86-1.13,2.58c-0.76,0.76-1.62,1.13-2.58,1.13c-0.97,0-1.83-0.36-2.58-1.08C279.79,446.4,279.41,445.52,279.41,444.51z"
		/>
	<path d="M290.4,479.96c2.85,1.83,5.83,2.75,8.96,2.77c2.16,0,3.92-0.68,5.27-2.05c1.48-1.44,2.21-3.38,2.21-5.82v-18.02l6.98-2.27
		v17.52h7.59v6.32h-7.77c-0.35,1.86-0.8,3.29-1.34,4.27c-1.04,1.83-2.48,3.27-4.32,4.32c-2.13,1.23-4.44,1.83-6.96,1.82
		c-1.51,0-3.14-0.25-4.9-0.74c-0.9-0.28-1.76-0.62-2.58-1.03L290.4,479.96z"/>
	<path d="M320.1,478.4v-6.32h6.01v-12.94l6.96-2.27v15.21h7.88v-15.05l6.96-2.27v17.31h4.11c2.64,0,3.94-1.31,3.93-3.93v-12.96
		l7.04-2.27l-0.08,15.65c0,2.85-0.88,5.15-2.64,6.9c-1.95,1.95-4.61,2.92-7.98,2.92H320.1z"/>
	<path d="M367.22,440.62l1.5-2.69h1.32c0.04-1,0.14-1.77,0.32-2.32c0.65-1.72,1.85-2.58,3.61-2.58c1.19,0,2.26,0.45,3.19,1.34
		l-1.79,1.95c-0.4-0.4-0.89-0.61-1.45-0.61c-0.21,0.04-0.43,0.14-0.66,0.32c-0.28,0.32-0.42,0.68-0.42,1.08v0.82h4.43v2.69H367.22z
		 M369.27,478.4v-33.12l7.01-2.27v35.39H369.27z"/>
	<path d="M382.58,465.78c0-2.81,0.63-5.3,1.9-7.46c1-1.76,2.33-3.1,3.98-4.03c1.72-1,3.7-1.51,5.93-1.53
		c7.76,0,11.66,4.86,11.67,14.57v1.58v2.69v2.64c0,2.58-0.18,4.62-0.55,6.11c-0.4,1.76-1.23,3.34-2.48,4.74
		c-1.3,1.41-2.9,2.43-4.8,3.08c-1.37,0.44-2.78,0.65-4.22,0.63c-1.58,0-3.31-0.25-5.19-0.74c-0.97-0.28-1.86-0.62-2.69-1.03
		l-3.14-7.09c2.88,1.83,6.02,2.75,9.41,2.77c2.06,0,3.67-0.53,4.85-1.58c0.61-0.51,1.08-1.12,1.4-1.82c0.14-0.32,0.31-0.83,0.5-1.53
		c-1.48,0.65-2.93,0.98-4.37,0.98c-3.53,0-6.36-1.08-8.49-3.24c-1.19-1.23-2.11-2.66-2.74-4.3
		C382.9,469.55,382.58,467.73,382.58,465.78z M389.54,465.83c0,2.41,0.63,4.24,1.9,5.51c0.83,0.83,1.77,1.24,2.85,1.24
		c1.44,0,2.61-0.63,3.5-1.9c0.9-1.27,1.35-2.88,1.37-4.85c0-2.16-0.53-3.91-1.58-5.24c-0.9-1.11-1.98-1.66-3.24-1.66
		c-1.37,0-2.5,0.62-3.4,1.87C390,462.14,389.54,463.81,389.54,465.83z"/>
	<path d="M419.44,475.37c0-2.58,0.63-4.94,1.9-7.06c1.23-2.02,2.88-3.6,4.95-4.74c2.06-1.11,4.51-1.67,7.35-1.69h4.37
		c-0.35-0.86-0.85-1.6-1.5-2.21c-1.16-1.04-2.53-1.55-4.11-1.55c-1.55,0-3.22,0.48-5.03,1.45c-0.93,0.51-1.83,1.16-2.69,1.95
		l-4.32-4.32c0.83-0.86,1.56-1.55,2.21-2.06c1.48-1.04,3.1-1.88,4.88-2.53c1.79-0.62,3.57-0.92,5.32-0.92
		c2.09,0,4.05,0.41,5.88,1.24c3.13,1.44,5.36,4,6.69,7.67c0.47,1.41,0.78,2.99,0.92,4.74c0.04,0.83,0.07,1.77,0.11,2.82h-12.07
		c-2.44,0-4.35,0.7-5.72,2.11c-0.65,0.65-1.16,1.42-1.53,2.32c-0.32,0.9-0.47,1.76-0.47,2.58c0,2.23,1.02,4.08,3.06,5.56
		c1.48,1.07,3.14,1.62,4.98,1.63c2.67,0,5.33-0.92,7.98-2.77v6.48c-2.81,1.76-5.8,2.64-8.96,2.64c-2.71,0-5.21-0.65-7.51-1.95
		c-2.16-1.26-3.83-2.9-5.01-4.9C420.01,479.87,419.44,477.71,419.44,475.37z M431.49,475c0-1,0.38-1.88,1.13-2.63
		c0.72-0.72,1.58-1.08,2.58-1.08c0.97,0,1.84,0.36,2.61,1.08c0.76,0.75,1.13,1.63,1.13,2.63s-0.38,1.86-1.13,2.58
		c-0.75,0.76-1.62,1.13-2.61,1.13c-0.97,0-1.83-0.36-2.58-1.08C431.87,476.88,431.49,476,431.49,475z"/>
	<path d="M452.75,478.4v-33.12l7.01-2.27v35.39H452.75z"/>
	<path d="M466.06,465.78c0-2.81,0.63-5.3,1.9-7.46c1-1.76,2.33-3.1,3.98-4.03c1.72-1,3.7-1.51,5.93-1.53
		c7.76,0,11.66,4.86,11.67,14.57v1.58v2.69v2.64c0,2.58-0.18,4.62-0.55,6.11c-0.4,1.76-1.23,3.34-2.48,4.74
		c-1.3,1.41-2.9,2.43-4.8,3.08c-1.37,0.44-2.78,0.65-4.22,0.63c-1.58,0-3.31-0.25-5.19-0.74c-0.97-0.28-1.86-0.62-2.69-1.03
		l-3.14-7.09c2.88,1.83,6.02,2.75,9.41,2.77c2.06,0,3.67-0.53,4.85-1.58c0.61-0.51,1.08-1.12,1.4-1.82c0.14-0.32,0.31-0.83,0.5-1.53
		c-1.48,0.65-2.93,0.98-4.37,0.98c-3.53,0-6.36-1.08-8.49-3.24c-1.19-1.23-2.11-2.66-2.74-4.3
		C466.39,469.55,466.06,467.73,466.06,465.78z M473.02,465.83c0,2.41,0.63,4.24,1.9,5.51c0.83,0.83,1.77,1.24,2.85,1.24
		c1.44,0,2.61-0.63,3.5-1.9c0.9-1.27,1.35-2.88,1.37-4.85c0-2.16-0.53-3.91-1.58-5.24c-0.9-1.11-1.98-1.66-3.24-1.66
		c-1.37,0-2.5,0.62-3.4,1.87C473.48,462.14,473.02,463.81,473.02,465.83z"/>
	<path d="M490.17,479.96c2.85,1.83,5.83,2.75,8.96,2.77c2.16,0,3.92-0.68,5.27-2.05c1.48-1.44,2.21-3.38,2.21-5.82v-19.66l6.98-2.27
		v23.16c0,3.6-1.01,6.5-3.03,8.7c-1.37,1.51-3.12,2.61-5.24,3.29c-1.51,0.51-3.02,0.75-4.53,0.74c-1.51,0-3.14-0.25-4.9-0.74
		c-0.9-0.28-1.76-0.62-2.58-1.03L490.17,479.96z M505.88,444.41c0-1,0.38-1.89,1.13-2.66c0.72-0.72,1.58-1.08,2.58-1.08
		c0.97,0,1.83,0.36,2.58,1.08c0.75,0.76,1.13,1.64,1.13,2.66c0,1-0.38,1.86-1.13,2.58c-0.76,0.76-1.62,1.13-2.58,1.13
		s-1.83-0.36-2.58-1.08C506.26,446.29,505.88,445.41,505.88,444.41z"/>
	<path d="M526.99,465.68c0-4.39,1.25-7.72,3.74-9.99c1.95-1.76,4.52-2.64,7.72-2.66c3.67,0,6.53,1.2,8.56,3.58
		c1.86,2.16,2.8,5.09,2.82,8.78c0,2.67-0.34,4.81-1.03,6.43c-0.86,2.06-2.14,3.64-3.85,4.74c-1.83,1.23-4.01,1.84-6.56,1.84
		c-3.57,0-6.36-1.13-8.38-3.4C528,472.74,526.99,469.63,526.99,465.68z M529.81,444.51c0-1,0.38-1.88,1.13-2.63
		c0.72-0.72,1.58-1.08,2.58-1.08c0.97,0,1.84,0.36,2.61,1.08c0.75,0.76,1.13,1.63,1.13,2.63c0,1-0.38,1.86-1.13,2.58
		c-0.76,0.76-1.62,1.13-2.61,1.13c-0.97,0-1.83-0.36-2.58-1.08C530.18,446.4,529.81,445.52,529.81,444.51z M534.02,465.68
		c0,4.36,1.48,6.53,4.43,6.51c3.02,0,4.53-2.15,4.53-6.46c0-4.32-1.51-6.48-4.53-6.48C535.5,459.25,534.02,461.39,534.02,465.68z
		 M539.53,444.51c0-1,0.38-1.88,1.13-2.63c0.72-0.72,1.58-1.08,2.58-1.08c0.97,0,1.83,0.36,2.58,1.08c0.75,0.76,1.13,1.63,1.13,2.63
		c0,1-0.38,1.86-1.13,2.58c-0.76,0.76-1.62,1.13-2.58,1.13c-0.97,0-1.83-0.36-2.58-1.08C539.91,446.4,539.53,445.52,539.53,444.51z"
		/>
	<path d="M554.55,478.4l4.11-6.32h12.31v-7.59c0-1.54-0.5-2.78-1.5-3.69c-0.9-0.83-2.03-1.24-3.4-1.24c-2.34,0-4.75,1.3-7.25,3.9
		v-6.54c2.67-2.44,5.62-3.66,8.85-3.66c2.78,0,5.09,0.84,6.96,2.53c2.2,1.95,3.29,4.54,3.29,7.77v8.51h7.35v6.32H554.55z"/>
	<path d="M583.96,478.4v-6.32h6.01v-12.94l6.96-2.27v15.21h7.88v-15.05l6.96-2.27v17.31h4.11c2.64,0,3.94-1.31,3.93-3.93v-12.96
		l7.04-2.27l-0.08,15.65c0,2.85-0.88,5.15-2.64,6.9c-1.95,1.95-4.61,2.92-7.98,2.92H583.96z M599.51,446.17c0-1,0.38-1.88,1.13-2.63
		c0.72-0.72,1.59-1.08,2.61-1.08c0.97,0,1.83,0.36,2.58,1.08c0.75,0.76,1.13,1.63,1.13,2.63c0,1-0.38,1.87-1.13,2.61
		c-0.75,0.76-1.62,1.13-2.58,1.13c-0.97,0-1.84-0.36-2.61-1.08C599.88,448.06,599.51,447.18,599.51,446.17z M604.43,438.03
		c0-0.93,0.36-1.76,1.08-2.48c0.69-0.69,1.49-1.03,2.42-1.03c0.93,0,1.74,0.34,2.42,1.03c0.72,0.68,1.08,1.51,1.08,2.48
		c0,0.93-0.36,1.76-1.08,2.48c-0.69,0.68-1.49,1.03-2.42,1.03c-0.93,0-1.74-0.34-2.42-1.03
		C604.79,439.79,604.43,438.96,604.43,438.03z M609.23,446.17c0-1,0.38-1.88,1.13-2.63c0.72-0.72,1.58-1.08,2.58-1.08
		c0.97,0,1.84,0.36,2.61,1.08c0.76,0.76,1.13,1.63,1.13,2.63c0,1-0.38,1.87-1.13,2.61c-0.75,0.76-1.62,1.13-2.61,1.13
		c-0.97,0-1.83-0.36-2.58-1.08C609.61,448.06,609.23,447.18,609.23,446.17z"/>
	<path d="M627.46,479.96c2.85,1.83,5.83,2.75,8.96,2.77c2.16,0,3.92-0.68,5.27-2.05c1.48-1.44,2.21-3.38,2.21-5.82v-18.02l6.98-2.27
		v17.52h7.59v6.32h-7.77c-0.35,1.86-0.8,3.29-1.34,4.27c-1.04,1.83-2.48,3.27-4.32,4.32c-2.13,1.23-4.44,1.83-6.96,1.82
		c-1.51,0-3.14-0.25-4.9-0.74c-0.9-0.28-1.76-0.62-2.58-1.03L627.46,479.96z"/>
	<path d="M657.16,478.4v-6.32h3.53c2.78,0,4.15-1.41,4.14-4.24v-1.74c0-4.46,1.19-7.81,3.56-10.04c1.95-1.79,4.54-2.69,7.77-2.69
		c3.6,0,6.39,1.13,8.38,3.4c1.86,2.2,2.79,5.27,2.79,9.22c0,4.5-1.19,7.86-3.56,10.09c-1.92,1.79-4.44,2.69-7.56,2.69
		c-2.81,0-5.32-0.81-7.54-2.42c-0.97,0.83-1.99,1.39-3.08,1.69c-0.93,0.25-2.06,0.37-3.4,0.37H657.16z M671.97,466.1
		c0,1.92,0.3,3.41,0.9,4.48c0.72,1.23,1.82,1.84,3.29,1.84c1.69,0,2.87-0.83,3.56-2.5c0.4-1,0.61-2.27,0.61-3.82
		c0-1.95-0.31-3.46-0.92-4.53c-0.72-1.23-1.8-1.84-3.24-1.84c-1.48,0-2.57,0.63-3.29,1.9C672.27,462.69,671.97,464.18,671.97,466.1z
		"/>
</g>
</svg>
