<svg xmlns="http://www.w3.org/2000/svg" xmlns:xlink="http://www.w3.org/1999/xlink" width="601.86" height="253.78" viewBox="0 0 601.86 253.78"><defs><linearGradient id="a" x1="300.93" y1="251.24" x2="300.93" y2="-86.41" gradientUnits="userSpaceOnUse"><stop offset="0" stop-color="#fff"/><stop offset="0.36" stop-color="#fcfcfc"/><stop offset="0.67" stop-color="#f1f1f3"/><stop offset="0.95" stop-color="#e0e0e4"/><stop offset="1" stop-color="#dcdce1"/></linearGradient></defs><path d="M300.93,0C161.28,0,48.07,113.21,48.07,252.86H553.78C553.78,113.21,440.58,0,300.93,0Z" style="fill:url(#a)"/><path d="M213.72,114.67a73.54,73.54,0,0,1,7.13-27.35A92.64,92.64,0,0,1,235.3,66.1c7.88-8.9,13.09-15.28,16.06-20.58a24.69,24.69,0,0,0,3-7,12,12,0,0,0,.32-5.33,7.23,7.23,0,0,0-5.15-5.77,9.15,9.15,0,0,0-8.12,1.86,197,197,0,0,0-18.89,41,181.58,181.58,0,0,0-5.75,21.92A175.26,175.26,0,0,0,213.72,114.67Z" style="fill:#f7fff8;stroke:#0a69af;stroke-miterlimit:10;stroke-width:0.485129px"/><path d="M233.32,42.36c-15.06,30.06-21,67.36-21,99.52v22.4" style="fill:none;stroke:#0a69af;stroke-miterlimit:10;stroke-width:0.485129px"/><path d="M214.17,108.76c.53-5.52.72-13.19,1.57-21.83A142,142,0,0,1,221,59.85c2.76-8.89,6.55-17.16,11.2-23.07a31.84,31.84,0,0,1,3.58-4,26.88,26.88,0,0,1,3.75-3,15.64,15.64,0,0,1,8-2.6,9.26,9.26,0,0,0-6,3.65,20,20,0,0,0-2.64,6.93c-.56,2.75-1,5.83-1.65,9.12a54.45,54.45,0,0,1-3.05,10.57,99.74,99.74,0,0,1-4.9,9.73c-.93,1.75-1.91,3.58-3,5.49-.54.94-1,1.92-1.54,2.93l-1.53,3.07C219.15,87,215.3,97.08,214.17,108.76Z" style="fill:#96d8e4;stroke:#0a69af;stroke-miterlimit:10;stroke-width:0.485129px"/><path d="M208.85,99.69a28.17,28.17,0,0,0-.62-4.38,28.83,28.83,0,0,0-1.09-4.11,45.51,45.51,0,0,0-3.27-7.45c-.63-1.17-1.28-2.31-1.92-3.42l-2.08-3.25c-1.31-2.15-2.77-4.2-4-6.29-.59-1.05-1.22-2.09-1.8-3.15a32.81,32.81,0,0,1-1.56-3.28,33.7,33.7,0,0,1-1.31-3.45c-.39-1.19-.64-2.46-.94-3.75A30.5,30.5,0,0,1,189.7,53c-.08-1.47-.21-3-.17-4.63s.15-3.42.26-5.27.4-3.9.69-6.06a143.18,143.18,0,0,1,12.91,30.22l1.08,4,.54,2,.45,2,.89,4,.72,4c.53,2.69.78,5.43,1.15,8.15.17,1.36.24,2.73.36,4.1S208.84,98.31,208.85,99.69Z" style="fill:#f7fff8;stroke:#0a69af;stroke-miterlimit:10;stroke-width:0.485129px"/><path d="M187,31.38a139.25,139.25,0,0,1,21.9,80v52.92" style="fill:none;stroke:#0a69af;stroke-miterlimit:10;stroke-width:0.485129px"/><path d="M207.39,85.14a68.72,68.72,0,0,0-5.91-17c-3-6.37-6.87-13-10.54-19.32s-7.09-12.35-9.19-18.07c-.25-.72-.47-1.44-.67-2.16s-.41-1.41-.57-2.11a22.82,22.82,0,0,1-.56-4.25,19,19,0,0,1,1.38-8.35c1.81-4.48,3.83-4.78,6.41-2a18.27,18.27,0,0,1,2,2.6c.66,1.07,1.33,2.3,2,3.68.35.68.71,1.4,1.07,2.15s.65,1.58,1,2.41c.66,1.68,1.41,3.43,2,5.35a182,182,0,0,1,6.76,26.81C204.45,64.76,205.8,75.07,207.39,85.14Z" style="fill:#96d8e4;stroke:#0a69af;stroke-miterlimit:10;stroke-width:0.485129px"/><path d="M209.77,130.94a22.63,22.63,0,0,0-1.05-3.82,24.38,24.38,0,0,0-1.47-3.52,37.64,37.64,0,0,0-3.94-6.19c-.73-.94-1.47-1.86-2.21-2.76s-1.57-1.73-2.34-2.58c-1.49-1.71-3.09-3.3-4.48-5-.68-.84-1.38-1.66-2-2.51a23.87,23.87,0,0,1-1.8-2.66,26.06,26.06,0,0,1-1.58-2.85c-.47-1-.82-2.09-1.22-3.19a23.36,23.36,0,0,1-.9-3.62c-.21-1.31-.46-2.65-.57-4.15S186,85,186,83.28s0-3.63.11-5.67a120.17,120.17,0,0,1,15.26,25.15l1.43,3.41.71,1.7.63,1.73,1.25,3.47,1.09,3.52c.78,2.33,1.29,4.74,1.92,7.12.3,1.19.49,2.41.75,3.61S209.62,129.72,209.77,130.94Z" style="fill:#f7fff8;stroke:#0a69af;stroke-miterlimit:10;stroke-width:0.485129px"/><path d="M182.21,73.05a116.06,116.06,0,0,1,28.73,67.73c0,.36,0,.73,0,1.09v22.41" style="fill:none;stroke:#0a69af;stroke-miterlimit:10;stroke-width:0.485129px"/><path d="M206.91,118.16c-1.17-4-3.83-9.08-7.38-14.31s-7.88-10.56-12-15.59-7.88-9.89-10.39-14.73c-.31-.62-.58-1.24-.84-1.87s-.52-1.21-.74-1.83a20.21,20.21,0,0,1-.94-3.83,18.7,18.7,0,0,1,.43-8.09c1.22-4.57,3.07-5.27,5.82-3.18a15.47,15.47,0,0,1,2.18,2.05c.74.88,1.51,1.9,2.32,3,.41.57.82,1.18,1.24,1.81s.8,1.34,1.21,2.06c.8,1.43,1.7,2.91,2.49,4.59a152.83,152.83,0,0,1,9.09,23.39C202.12,100.34,204.39,109.39,206.91,118.16Z" style="fill:#96d8e4;stroke:#0a69af;stroke-miterlimit:10;stroke-width:0.485129px"/><circle cx="399.42" cy="44.77" r="26.5" transform="translate(13.9 158.42) rotate(-22.82)" style="fill:#c8ebf5"/><circle cx="399.42" cy="44.77" r="19.16" transform="translate(85.33 295.54) rotate(-45)" style="fill:#f7fff8"/><line x1="399.42" y1="47.01" x2="399.42" y2="29.25" style="fill:none;stroke:#c8ebf5;stroke-linecap:round;stroke-miterlimit:10;stroke-width:1.8585800000000001px"/><line x1="398.01" y1="43.36" x2="408.25" y2="53.6" style="fill:none;stroke:#c8ebf5;stroke-linecap:round;stroke-miterlimit:10;stroke-width:1.8585800000000001px"/><path d="M259.29,88.87h83.28a18.6,18.6,0,0,1,18.6,18.6v95.68a0,0,0,0,1,0,0H240.69a0,0,0,0,1,0,0V107.47A18.6,18.6,0,0,1,259.29,88.87Z" style="fill:#6e6e71"/><path d="M351.3,139.88v22.24a9.74,9.74,0,0,1-9.74,9.74H260.3a9.74,9.74,0,0,1-9.74-9.74V139.88c0-5.8-4.94-12.64-9.87-12.64v74.09H361.17V127.24C356.24,127.24,351.3,134.08,351.3,139.88Z" style="fill:#373738"/><rect x="236.51" y="213" width="128.83" height="39.86" style="fill:#373738"/><rect x="236.51" y="213" width="128.83" height="15.51" style="fill:#6e6e71"/><rect x="226.99" y="203.15" width="147.88" height="9.85" transform="translate(601.86 416.15) rotate(180)" style="fill:#373738"/><path d="M231.3,177.79H370.56a9.9,9.9,0,0,1,9.9,9.9v10.83a4.63,4.63,0,0,1-4.63,4.63H226a4.63,4.63,0,0,1-4.63-4.63V187.69a9.9,9.9,0,0,1,9.9-9.9Z" style="fill:#5b5b5f"/><polygon points="325.32 177.8 345.75 203.15 300.93 203.15 300.93 177.92 325.32 177.8" style="fill:#373738"/><polygon points="312.92 58.05 312.92 67.66 301.24 76.09 289.56 67.66 289.56 58.05 312.92 58.05" style="fill:#ffba92"/><path d="M290.69,61.38c3,6.79,8.25,11.5,12.38,10.74s9.85-6.86,9.85-9.61V58.05Z" style="fill:#ff7852"/><path d="M290.75,50.71c.44,2.59-.19,4.84-1.41,5s-2.55-1.75-3-4.34.19-4.84,1.41-5S290.32,48.12,290.75,50.71Z" style="fill:#ff7852"/><path d="M311.72,50.71c-.43,2.59.2,4.84,1.41,5s2.55-1.75,3-4.34-.19-4.84-1.4-5S312.16,48.12,311.72,50.71Z" style="fill:#ff7852"/><path d="M289.11,54.16s-6.14-9.44-.8-18.89a7,7,0,0,0,.89-2.57c.34-2.65,2-8.38,10.22-7.93,10.61.59,12.88,9,12.88,9s8.19,2.74,1.06,20.44Z" style="fill:#20182f"/><path d="M290.78,39.22s-1.67,1.71-1.67,6.43v8.51a16.92,16.92,0,0,0,4.94,12c1.93,1.92,4.36,3.48,7.19,3.48s5.25-1.56,7.18-3.48a16.92,16.92,0,0,0,4.94-12V45.65c0-4.72-1.66-6.43-1.66-6.43a9.72,9.72,0,0,0-4.55-2.86,7.42,7.42,0,0,1-5.91,6.71C295.48,44.5,294.41,39.22,290.78,39.22Z" style="fill:#ffba92"/><path d="M334.32,140.71s-3.55-25.36-1.1-33.49-.92-35.1-.92-35.1H308.22l-7,5.22-6.47-5.22h-24.6s-4.25,23.88-1.81,32,1.51,36.58,1.51,36.58h64.45Z" style="fill:#96d8e4"/><path d="M315.68,74.21,312.92,84l-3.86-3.52a7.07,7.07,0,0,0-4.78-1.88h-6.09a7.07,7.07,0,0,0-4.78,1.88L289.56,84l-2.76-9.83h12.07l2.37,1.88,2.36-1.88Z" style="fill:#3c8f9e"/><path d="M289.56,66.79h-1l-2.68,5.33L290,82,296,76.1a2.62,2.62,0,0,1,2.49-.7l2.76.69Z" style="fill:#50bed2"/><path d="M312.92,66.79h.95l2.68,5.33L312.43,82l-5.95-5.92a2.62,2.62,0,0,0-2.49-.7l-2.75.69Z" style="fill:#50bed2"/><path d="M268.61,95.55V100s6.43,13.47,3.08,25.45l-5.2,2.81-.6-32.72Z" style="fill:#50bed2"/><path d="M250.61,137.3,257,84.24a13.5,13.5,0,0,1,13.21-12.12h0s.4,9.73-2.17,28c0,0,5.36,10,2.47,25.88Z" style="fill:#96d8e4"/><path d="M253.25,135.8,270.47,126c.13-.74.23-1.45.33-2.16-.31.08-12.5,3-17.55,8.08Z" style="fill:#50bed2"/><path d="M280.93,116.71,280,119a9.27,9.27,0,0,1-4.71,4.89c-2.39,1.07-4.59,5.66-3.13,11.16,1.08,4.05,4.61,6.05,6.48,4,2.27-2.34,3.7-4,3.7-4h8.77v-18.3Z" style="fill:#ffba92"/><path d="M272.16,135c-1.46-5.5.74-10.09,3.13-11.16-3.58,1.6-9,4-10.92,4.87-2.91,1.27-11.77-1.27-13.76,8.58A16.54,16.54,0,0,0,255.17,152a3.68,3.68,0,0,0,3.41,1.11c6.86-1.38,15.31-9.16,20.06-14.06C276.77,141.06,273.24,139.06,272.16,135Z" style="fill:#96d8e4"/><path d="M312.65,137.3H282.52l-2.75-35.57A3.3,3.3,0,0,1,283,98.11h29.19a3.3,3.3,0,0,1,3.22,3.62Z" style="fill:#c8ebf5"/><path d="M333.87,95.55V100s-6.44,13.47-3.09,25.45l5.21,2.81.59-32.72Z" style="fill:#50bed2"/><path d="M351.86,137.3l-6.35-53.06A13.49,13.49,0,0,0,332.3,72.12h0s-.39,9.73,2.17,28c0,0-5.36,10-2.47,25.88Z" style="fill:#96d8e4"/><path d="M349.22,135.8,332,126c-.13-.74-.23-1.45-.33-2.16.32.08,12.51,3,17.55,8.08Z" style="fill:#50bed2"/><path d="M330.31,135c1.46-5.5-.74-10.09-3.12-11.16,3.57,1.6,9,4,10.92,4.87,2.9,1.27,11.76-1.27,13.75,8.58A16.54,16.54,0,0,1,347.3,152a3.67,3.67,0,0,1-3.41,1.11c-6.86-1.38-15.3-9.16-20.06-14.06C325.7,141.06,329.24,139.06,330.31,135Z" style="fill:#96d8e4"/><path d="M327.14,123.83a9,9,0,0,1-4.65-4.84,3.54,3.54,0,0,0-3.2-2.28h-4.78a10.72,10.72,0,0,0-2.26.25l-9.52,2.14a2.45,2.45,0,0,0-1.87,2.42h0l-1.9.54a1.78,1.78,0,0,0-1.26,1.72v3.55a2,2,0,0,0,1.8,2l12.25,1.06-8.58,1.47a1.58,1.58,0,0,0,.24,3.13h13a8.49,8.49,0,0,1,6.2,2.71c.38.41.79.85,1.24,1.31,1.87,2,5.41,0,6.48-4C331.78,129.47,329.54,124.85,327.14,123.83Z" style="fill:#ffba92"/><path d="M314.47,113.72h1.4a2,2,0,0,1,1.5.71l1.92,2.28h-5.05Z" style="fill:#ffba92"/><path d="M321.8,139.55a19.59,19.59,0,0,1,19.59,16.88c1.36,10.85-3.37,21.37-10.61,21.37H278.59c-11.32,0-23.42-25.78-8.72-38.25Z" style="fill:#1e375a"/><path d="M286.1,121.54c-7.05,6.07-25.24,21.47-25.24,39.16S275,177.8,275,177.8h25.91V139.55Z" style="fill:#4b5f7b"/><path d="M294.68,132l-4.58.31s-11.51,5.55-11.51,23.42v9a7.06,7.06,0,0,1-7.06,7.07h-7.85A13.68,13.68,0,0,0,275,177.8h25.91V139.55Z" style="fill:#1e375a"/><path d="M299.28,139.55a16,16,0,0,0-16.09,16.68l3.49,72.28h17l7.63-88.89Z" style="fill:#4b5f7b"/><path d="M287.09,237s2.45-2.95,5.72-2.95,6.72,7.05,10.16,2.95l.73-8.44h-17Z" style="fill:#ffba92"/><path d="M303,237c-3.44,4.1-6.88-2.95-10.16-2.95s-5.72,2.95-5.72,2.95h0a4.49,4.49,0,0,0-2.31,3.92v2.31s-3.6,5.09-4.26,7.22h-.44V252a.84.84,0,0,0,.83.84h22.93a.84.84,0,0,0,.83-.84V250.4h-.41S306,247.88,303,237Z" style="fill:#20182f"/><path d="M322.63,180.43l-11.9-58a11.22,11.22,0,0,0-18.28-6.28l-6.35,5.43,23.79,64.09C307.9,180.27,321.41,174.48,322.63,180.43Z" style="fill:#4b5f7b"/><path d="M322.63,180.43c-1.22-6-14.73-.16-12.74,5.2l2,5.36a12.54,12.54,0,0,1,.79,4,8.45,8.45,0,0,0,3.41,6.33l12.45-12.9Z" style="fill:#ffba92"/><polygon points="292.36 141.07 306.94 190.72 307.86 180.03 293.21 140.7 292.36 141.07" style="fill:#1e375a"/><path d="M320,220.24c-2.79-7.93-5.74-16.78-3.12-21.86,0,0,1.59-9.95,5.73-11.14h5.9s6.7-9,13.76,0Z" style="fill:#20182f"/><path d="M320,220.24s-3.78-12.52,7-26,16.88-8.2,17-2.3-9.5,13-9.34,17.39,2.13,10.69-6.23,12.66S320,220.24,320,220.24Z" style="fill:#20182f"/><path d="M232.58,126.38h4.66a11.18,11.18,0,0,1,11.18,11.18v53.16a0,0,0,0,1,0,0h-27a0,0,0,0,1,0,0V137.55a11.18,11.18,0,0,1,11.18-11.18Z" style="fill:#5b5b5f"/><path d="M364.63,126.38h4.66a11.18,11.18,0,0,1,11.18,11.18v53.16a0,0,0,0,1,0,0h-27a0,0,0,0,1,0,0V137.55A11.18,11.18,0,0,1,364.63,126.38Z" style="fill:#5b5b5f"/><path d="M220.9,195.06h0a2.18,2.18,0,0,0-1.3,2c0,3.16.1,9.63,4.31,11.55l-1,.47,1.75,3.92,54.94-24.52-.63-1.44-.6.27s-2.61-4.47-5.39-3.77-10.62,4.36-14.52,2.81c-3.09-1.23-11.24-3-15.89-4.51a3,3,0,0,0-3.31,1.35Z" style="fill:#323237"/><path d="M219.17,188.82c.86,1.94,1.57,7.59,1.57,7.59l6.29-1a12.35,12.35,0,0,0,9.05-6.4l3.13-5.86L238,180.43Z" style="fill:#ffba92"/><path d="M191.25,112.67c7.57,0,22.58,18.9,46.73,67.76l-23.37,10.69s-23.36-27.26-23.36-54.22Z" style="fill:#323237"/><path d="M238,180.43c-1.92-3.9-3.78-7.58-5.59-11.1l-33.35-37-7.79,4.59c0,27,23.36,54.22,23.36,54.22Z" style="fill:#262629"/><path d="M170.09,158.46l21.16-21.56V112.67s-11.51-.76-77.85,31.2l-29.68,13-7.24,20.9H124A64.58,64.58,0,0,0,170.09,158.46Z" style="fill:#323237"/><path d="M62,61.78s-.13,13.46,0,13.33,18.2,12.2,18.2,12.2V77.57a3.67,3.67,0,0,1,3.67-3.68h1.45L70.69,58.54Z" style="fill:#ffba92"/><path d="M62,61.78s-.13,13.46,0,13.33,4.76,3.08,9.36,6.19V76.92a3,3,0,0,1,3-3H85.34L70.69,58.54Z" style="fill:#ff7852"/><path d="M94.49,54.59c0,10.67-4.12,19.31-9.15,19.3S69.2,65.21,69.23,54.54s11.14-19.31,16.18-19.3S94.51,43.91,94.49,54.59Z" style="fill:#ffba92"/><path d="M70.1,54.59c1.19,3.27.61,6.5-1.3,7.2s-4.44-1.4-5.63-4.68-.62-6.5,1.3-7.2S68.9,51.31,70.1,54.59Z" style="fill:#ffba92"/><path d="M63.4,50.73l7.14,2.55A3.79,3.79,0,0,0,75.39,51h0a9.23,9.23,0,0,1,8.73-6.21h0a13.05,13.05,0,0,0,9.25-3.84h0a5.63,5.63,0,0,0,.43-7.63c-1-1.21-2.77-2.07-5.53-1.81,0,0-1.92.53-4.78-3.18s-9.93-7.65-19.33-2.66c-9.77,5.19-11,16-6.83,26.84a2.65,2.65,0,0,1-.22,2.34,6.44,6.44,0,0,0-.93,3.51,6.59,6.59,0,0,0,6.39,6.39c2.75,0,3.9-1.3,4.17-3.1-2.35-1.1-4-4.49-4.16-7.23A5.56,5.56,0,0,1,63.4,50.73Z" style="fill:#b02e1a"/><path d="M55.09,77.09l3.33-3.9A3.58,3.58,0,0,1,63,72.45L80.93,83.32a6.1,6.1,0,0,1,2.94,5.22v5.8Z" style="fill:#3b87bf"/><path d="M55.09,77.09c-10,11.78-35.28,35,19.39,100.7h2a11.93,11.93,0,0,0,11.93-11.94h0a12,12,0,0,1,5.71-10.18l19.28-11.8h0A7.31,7.31,0,0,0,108,136.8l-7.46-2S83.87,114,83.87,94.34Z" style="fill:#0a69af"/><path d="M94.34,155.54l19.06-11.67A7.31,7.31,0,0,0,108,136.8l-7.46-2a97.63,97.63,0,0,1-11.08-18.33,54.38,54.38,0,0,0-9.86-14.53l-2.65-2.8L48.86,108.6,87.3,170.86a11.79,11.79,0,0,0,1.11-5.11A12,12,0,0,1,94.34,155.54Z" style="fill:#084f83"/><path d="M191.25,136.9h15a12.89,12.89,0,0,1,12.89,12.89v78.74H195c0-22.42-10.14-37.26-.15-59.22l-6.82,2.81a75.39,75.39,0,0,1-28.67,5.67H124Z" style="fill:#323237"/><polygon points="191.25 136.9 194.25 136.9 139.52 177.79 124.02 177.79 191.25 136.9" style="fill:#19191c"/><path d="M193.7,235h0a2.17,2.17,0,0,0-2,1.3c-1.27,2.9-3.84,8.84-.78,12.31h-1.15v4.29H250v-1.57h-.65s-.56-5.14-3.39-5.65-11.48-.34-14.41-3.35c-2.31-2.38-9.05-7.29-12.66-10.59a2.5,2.5,0,0,0-3.21-.14h0Z" style="fill:#323237"/><path d="M195,228.53c0,2.12-1.66,7.57-1.66,7.57l6.13,1.69a12.44,12.44,0,0,0,10.89-2.16l5.24-4.07v-3Z" style="fill:#ffba92"/><path d="M48.86,108.6c9.86,13.92,26.64,36.83,33,45.58A5.82,5.82,0,0,0,89,156.06l42.78-20.86-6.68-3a21.08,21.08,0,0,0-8.67-1.86H94.49l-22-39.14a16.67,16.67,0,0,0-9.23-7.62l-.45-.15A11.47,11.47,0,0,0,51.25,86l-.22.22A17.2,17.2,0,0,0,48.86,108.6Z" style="fill:#0a69af"/><path d="M73.13,177.79H181.8a6.48,6.48,0,0,1,6.48,6.48v11.2a7.69,7.69,0,0,1-7.69,7.69H66.66a0,0,0,0,1,0,0V184.27A6.48,6.48,0,0,1,73.13,177.79Z" style="fill:#73cbdb"/><polygon points="31.11 213 178.99 213 178.99 203.15 40.49 203.15 31.11 213" style="fill:#50bed2"/><path d="M46.18,203.15,11.37,104.27A9.12,9.12,0,0,1,20,92.11h0a20.94,20.94,0,0,1,19.74,14l34.18,97.06Z" style="fill:#73cbdb"/><path d="M40.49,151.89h97.3a28,28,0,0,1,28,28h0a9.69,9.69,0,0,1-9.69,9.69H40.49Z" style="fill:#c8ebf5"/><polygon points="38.79 151.89 24.65 252.86 31.72 252.86 46.19 203.15 43.23 151.89 38.79 151.89" style="fill:#50bed2"/><polygon points="178.99 213 184.4 252.86 177.33 252.86 165.82 213 178.99 213" style="fill:#50bed2"/><path d="M387.84,240h0c1.46,0,1.33,1,1.66,2.38.49,2.05,3.21,5.48,1.58,10.51H335V250.3h1.64s.17-5.1,3.43-5.78,20.63-3.18,23.23-4.33c7.21-3.19,7.75-5.23,11.6-4.38Z"/><path d="M375.41,233.38l-.52,2.43c2.94.46,3.55,8.42,8.14,8.42,3.34,0,4.45-3.85,5.91-3.85l2.22-7Z" style="fill:#ffba92"/><path d="M526.77,158.46l-4.32,5.63h0a13.7,13.7,0,0,1-13.7,13.7H470.22a129.14,129.14,0,0,1-28.52-3.19l-28.6-6.48a93.7,93.7,0,0,1-6.19,32.09,309.48,309.48,0,0,1-15.75,33.17H375.41l17.51-83.66a14.92,14.92,0,0,1,15.74-11.81l91.21,7.32Z" style="fill:#0a69af"/><path d="M428.39,139.49l-19.73-1.58a14.92,14.92,0,0,0-15.74,11.81L377,226c15-11,30-25.79,33.32-36.44a91.52,91.52,0,0,0,2.82-21.44l7.1,1.61A126.39,126.39,0,0,0,428.39,139.49Z" style="fill:#084f83"/><path d="M386.85,215.87h0c1.46,0,1.33.95,1.66,2.33.49,2,3.21,5.37,1.58,10.31H334V226h1.63s.17-5,3.43-5.67,19.4-4.32,22-5.45c7.21-3.13,7.75-5.14,11.59-4.3Z"/><path d="M373.3,209.38l-.33,1.31c3,1.4,4.48,9.55,9.07,9.55,3.34,0,4.45-3.86,5.91-3.86l2.22-7Z" style="fill:#ffba92"/><path d="M493.07,142.45l-71.41-27.78a14.37,14.37,0,0,0-18,6.86c-7.13,13.89-20,41.5-30.36,87.85h16.87s35.25-45.94,35.25-70.12l74.45,6Z" style="fill:#0a69af"/><path d="M425.42,139.26a32.64,32.64,0,0,0-.62-4.8l63.53,9.84Z" style="fill:#084f83"/><path d="M527,86.23c-12.21,7.86-12.35,16.36-12.15,26.65.52,26.15-28.31,16.67-21.77,29.57l33.7,16a15.8,15.8,0,0,0,22-8.84l13.71-38.92c3.83-10.89-.07-31.34-15.38-34.39Z" style="fill:#6ca5cf"/><path d="M553.78,79.13h0c-5.4,27.26-23.18,59.14-39.07,73.6l12.06,5.73a15.8,15.8,0,0,0,22-8.84l13.71-38.92C565.71,101.61,563.51,85.86,553.78,79.13Z" style="fill:#0a69af"/><path d="M533.72,28.24a7.48,7.48,0,0,0-7.21-.62c-4.32,1.81-7,8.14-9.39,8.14-3.91,0-7.71,5-3.37,9.71,0,0-6.6,4.18-6.76,10.14s5.15,9.82,5.15,11c0,.9-8.9,6.66-6.85,16a6.8,6.8,0,0,0,9.65,4.53l12.82-6.27,5.31-44.65Z" style="fill:#b02e1a"/><polygon points="538.06 67.86 526.99 72.04 526.99 86.23 538.06 80.78 538.06 67.86" style="fill:#ff7852"/><path d="M524.34,42.71a10.42,10.42,0,0,0-7.08,10.45c.5,8.51,2.73,19.19,12.43,19.19,13.36,0,14.49-17.06,14.49-27.2,0,0-7.08.16-11.11-9l-1.57,1.8a16.45,16.45,0,0,1-7.16,4.78Z" style="fill:#ffba92"/><path d="M538.06,80.78c-2.88,1.65-6.8-2.22-6.25-7.53.37-3.55,2.65-6.22,6.82-8.3,0,0-3.47-7.41,5.1-10.71v-.31a9.26,9.26,0,0,0-4.67-8c-2.86-1.68-6-4.7-6-9.85l.65-7.89a9.38,9.38,0,0,1,7.69-.8c4.86,1.69,7.23,10.61,11.78,13.84,1.62,1.15,6.19,2.51,7.81,7.09,1.81,5.15.76,12.69-4.43,15.45,0,0,5.32,4.83-3.05,9.34Z" style="fill:#b02e1a"/><path d="M526.6,93.4v37.24l-8.36,22-1.34.18c-3.77.44-7-3.26-7.47-7.13-1.42-11.58-3.51-35.58.94-52.33Z" style="fill:#6ca5cf"/><path d="M514.75,93.4V89.53l-1.1-2.31a7.08,7.08,0,0,1-.69-3V76.33a4.31,4.31,0,0,1,3.32-4.24l8.06-1.78a4,4,0,0,1,3,.53l1.59,1a3.4,3.4,0,0,1,1.52,3.31L529,85.89a1.92,1.92,0,0,1-1.21,1.55h0a1.91,1.91,0,0,0-1.22,1.8V93.4Z" style="fill:#ffba92"/><path d="M518.24,152.68c11-2.76,43.7-31.24,45.61-52,0,0,0-16-11.75-22.56,0,0-15.3-1.67-18.38,21l-7.12,19.2Z" style="fill:#6ca5cf"/><polygon points="526.6 118.24 526.6 130.64 533.72 99.04 526.6 118.24" style="fill:#0a69af"/><path d="M413.58,177.79H527.52a7.69,7.69,0,0,1,7.69,7.69v11.2a6.48,6.48,0,0,1-6.48,6.48H420.06a6.48,6.48,0,0,1-6.48-6.48V177.79A0,0,0,0,1,413.58,177.79Z" transform="translate(948.78 380.94) rotate(180)" style="fill:#73cbdb"/><polygon points="570.74 213 422.87 213 422.87 203.15 561.37 203.15 570.74 213" style="fill:#50bed2"/><path d="M555.67,203.15l34.82-98.88a9.12,9.12,0,0,0-8.6-12.16h0a20.94,20.94,0,0,0-19.74,14L528,203.15Z" style="fill:#73cbdb"/><path d="M561.37,151.89h-97.3a28,28,0,0,0-28,28h0a9.7,9.7,0,0,0,9.7,9.69H561.37Z" style="fill:#c8ebf5"/><polygon points="563.07 151.89 577.21 252.86 570.14 252.86 555.67 203.15 558.63 151.89 563.07 151.89" style="fill:#50bed2"/><polygon points="422.87 213 417.46 252.86 424.52 252.86 436.03 213 422.87 213" style="fill:#50bed2"/><line x1="0.93" y1="252.86" x2="600.93" y2="252.86" style="fill:none;stroke:#20182f;stroke-linecap:round;stroke-miterlimit:10;stroke-width:1.8585800000000001px"/></svg>